<svg width="24" height="24" viewBox="0 0 24 24" fill="none" xmlns="http://www.w3.org/2000/svg">
<path d="M3 7V17.8M21 17.8V15.6787C21 13.8832 21 12.985 20.748 12.2641C20.5246 11.6257 20.1602 11.0458 19.6819 10.5676C19.2035 10.0894 18.6235 9.72515 17.985 9.502C17.265 9.25 16.3668 9.25 14.5713 9.25C13.8531 9.25 13.494 9.25 13.2051 9.3508C12.9499 9.44012 12.7181 9.58577 12.5269 9.77695C12.3358 9.96813 12.1901 10.1999 12.1008 10.4551C12 10.744 12 11.104 12 11.8213V16M3 16H21" stroke="#BB31EC" stroke-width="1.2" stroke-linecap="round" stroke-linejoin="round"/>
<path opacity="0.5" d="M9.75 11.5C9.75 12.0967 9.51295 12.669 9.09099 13.091C8.66903 13.5129 8.09674 13.75 7.5 13.75C6.90326 13.75 6.33097 13.5129 5.90901 13.091C5.48705 12.669 5.25 12.0967 5.25 11.5C5.25 10.9033 5.48705 10.331 5.90901 9.90901C6.33097 9.48705 6.90326 9.25 7.5 9.25C8.09674 9.25 8.66903 9.48705 9.09099 9.90901C9.51295 10.331 9.75 10.9033 9.75 11.5Z" stroke="#BB31EC" stroke-width="1.2"/>
</svg>
