<svg width="26" height="24" viewBox="0 0 26 24" fill="none" xmlns="http://www.w3.org/2000/svg">
<path d="M21.8149 8.1471L21.5338 8.79393C21.4898 8.89925 21.4157 8.98922 21.3207 9.05251C21.2258 9.1158 21.1142 9.14957 21.0001 9.14957C20.8859 9.14957 20.7744 9.1158 20.6794 9.05251C20.5844 8.98922 20.5103 8.89925 20.4664 8.79393L20.1853 8.1471C19.691 7.00284 18.7858 6.0854 17.6482 5.57581L16.7809 5.1884C16.6756 5.13999 16.5865 5.06243 16.524 4.9649C16.4615 4.86737 16.4283 4.75397 16.4283 4.63814C16.4283 4.52231 16.4615 4.40891 16.524 4.31138C16.5865 4.21385 16.6756 4.13629 16.7809 4.08788L17.6002 3.72333C18.7664 3.19922 19.6871 2.24784 20.1727 1.06518L20.4618 0.366931C20.5043 0.25877 20.5783 0.16591 20.6744 0.100459C20.7704 0.0350075 20.8839 0 21.0001 0C21.1163 0 21.2298 0.0350075 21.3258 0.100459C21.4218 0.16591 21.4959 0.25877 21.5383 0.366931L21.8275 1.06404C22.3126 2.24692 23.2329 3.19871 24.3987 3.72333L25.2193 4.08903C25.3242 4.13757 25.413 4.21512 25.4753 4.31253C25.5375 4.40993 25.5706 4.52311 25.5706 4.63871C25.5706 4.75431 25.5375 4.86749 25.4753 4.9649C25.413 5.0623 25.3242 5.13985 25.2193 5.1884L24.3507 5.57466C23.2135 6.08477 22.3087 7.00262 21.8149 8.1471ZM11.8577 1.14403C5.546 1.14403 0.429696 6.26034 0.429696 12.572C0.427845 14.073 0.722602 15.5596 1.29703 16.9464C1.87146 18.3331 2.71424 19.5927 3.77695 20.6527L0.429696 24H11.8577C18.1694 24 23.2857 18.8837 23.2857 12.572C23.2857 12.1119 23.259 11.6585 23.2057 11.2121L20.9361 11.4806C20.9787 11.8387 21.0001 12.2025 21.0001 12.572C21.0001 14.9967 20.0369 17.3221 18.3223 19.0367C16.6078 20.7512 14.2824 21.7144 11.8577 21.7144H5.94713L7.00993 20.6527L5.39287 19.0368C4.54241 18.189 3.86801 17.1813 3.40849 16.0718C2.94896 14.9623 2.71338 13.7729 2.71529 12.572C2.71494 11.1765 3.03404 9.79948 3.64816 8.54639C4.26227 7.29329 5.1551 6.19741 6.25822 5.34271C7.36134 4.48802 8.64547 3.89719 10.0122 3.6155C11.379 3.33381 12.7921 3.36874 14.1433 3.71762L14.7124 1.50402C13.7982 1.2686 12.8416 1.14403 11.8577 1.14403ZM8.42928 9.14362H6.14369V16.0004H8.42928V9.14362ZM17.5717 9.14362H15.2861V16.0004H17.5717V9.14362ZM13.0005 5.71523H10.7149V19.4288H13.0005V5.71523Z" fill="#F8F4FF"/>
</svg>
