<svg width="16" height="16" viewBox="0 0 16 16" fill="none" xmlns="http://www.w3.org/2000/svg">
<path d="M13.9996 7.10033V8.0003C13.9996 10.8286 13.9996 12.2428 13.1207 13.1211C12.2429 14.0001 10.8281 14.0001 7.99981 14.0001C5.1715 14.0001 3.75735 14.0001 2.87837 13.1211C2 12.2434 2 10.8286 2 8.0003C2 5.17199 2 3.75783 2.87837 2.87886C3.75795 2.00049 5.1715 2.00049 7.99981 2.00049H8.89979" stroke="#4074D8" stroke-width="0.8" stroke-linecap="round"/>
<path d="M11.1797 2.48371L10.7909 2.8737L7.21201 6.45199C6.96962 6.69438 6.84842 6.81558 6.74403 6.94937C6.62103 7.10657 6.51603 7.27756 6.42964 7.45816C6.35704 7.61115 6.30304 7.77375 6.19444 8.09894L5.84705 9.13991L5.62266 9.81369C5.59635 9.89222 5.59248 9.97654 5.61147 10.0572C5.63046 10.1378 5.67157 10.2115 5.73017 10.27C5.78877 10.3286 5.86254 10.3696 5.94318 10.3885C6.02382 10.4074 6.10813 10.4035 6.18664 10.3771L6.85982 10.1527L7.90079 9.80529C8.22598 9.69729 8.38858 9.64329 8.54157 9.57009C8.72217 9.4837 8.89316 9.3781 9.05036 9.2557C9.18415 9.15131 9.30535 9.03011 9.54834 8.78772L13.1266 5.20883L13.516 4.81944C13.8258 4.50962 13.9997 4.08945 13.9997 3.65136C13.9996 3.21327 13.8255 2.79315 13.5157 2.48341C13.2059 2.17368 12.7857 1.9997 12.3476 1.99976C11.9096 1.99981 11.4894 2.1739 11.1797 2.48371Z" stroke="#4074D8" stroke-width="0.8"/>
<path d="M10.7899 2.87329C10.7899 2.87329 10.8385 3.70067 11.5687 4.43024C12.2983 5.16042 13.1257 5.20902 13.1257 5.20902M6.85885 10.1529L5.84668 9.1401" stroke="#4074D8" stroke-width="0.8"/>
</svg>
