<svg width="40" height="40" viewBox="0 0 40 40" fill="none" xmlns="http://www.w3.org/2000/svg">
<path opacity="0.5" d="M21.8613 15.0363H25.5823L21.8613 18.7573H25.5823M27.4428 7.59448H32.4042L27.4428 12.5557H32.4042" stroke="#4074D8" stroke-width="1.25" stroke-linecap="round" stroke-linejoin="round"/>
<path d="M31.4727 20.0001C31.4727 23.0429 30.264 25.961 28.1123 28.1126C25.9607 30.2642 23.0425 31.4729 19.9996 31.4729V33.3334C27.3635 33.3334 33.3332 27.3638 33.3332 20.0001H31.4727ZM19.9996 31.4729C16.9568 31.4729 14.0385 30.2642 11.8869 28.1126C9.73529 25.961 8.52652 23.0429 8.52652 20.0001H6.66602C6.66602 27.3638 12.6358 33.3334 19.9996 33.3334V31.4729ZM8.52652 20.0001C8.52652 16.9573 9.73529 14.0391 11.8869 11.8875C14.0385 9.73596 16.9568 8.52721 19.9996 8.52721V6.66675C12.6358 6.66675 6.66602 12.6364 6.66602 20.0001H8.52652ZM24.3408 22.7908C22.4493 22.7908 20.6353 22.0394 19.2978 20.7019C17.9603 19.3645 17.2089 17.5505 17.2089 15.659H15.3484C15.3484 18.0439 16.2958 20.3311 17.9822 22.0175C19.6686 23.7038 21.9559 24.6512 24.3408 24.6512V22.7908ZM30.4494 19.3415C29.8151 20.3944 28.9193 21.2654 27.8489 21.8698C26.7785 22.4742 25.57 22.7914 24.3408 22.7908V24.6512C25.8905 24.6521 27.4141 24.2522 28.7637 23.4905C30.1133 22.7288 31.2431 21.6311 32.0433 20.304L30.4494 19.3415ZM17.2089 15.659C17.2083 14.4298 17.5257 13.2214 18.1301 12.151C18.7345 11.0807 19.6054 10.1848 20.6582 9.55047L19.6957 7.95791C18.3687 8.7579 17.271 9.8874 16.5093 11.2368C15.7476 12.5861 15.3476 14.1095 15.3484 15.659H17.2089ZM19.9996 8.52721C19.8738 8.52425 19.7543 8.47163 19.6672 8.38086C19.6139 8.32906 19.5784 8.26179 19.5655 8.18861C19.5605 8.15016 19.563 8.03853 19.6957 7.95791L20.6582 9.55047C21.2821 9.17341 21.4831 8.48256 21.4099 7.93931C21.333 7.37497 20.8889 6.66675 19.9996 6.66675V8.52721ZM32.0433 20.304C31.9614 20.4367 31.8498 20.4392 31.8113 20.4342C31.7382 20.4213 31.6709 20.3857 31.6191 20.3325C31.5283 20.2454 31.4757 20.1259 31.4727 20.0001H33.3332C33.3332 19.1108 32.625 18.6667 32.0606 18.5898C31.5174 18.5167 30.8265 18.7176 30.4494 19.3415L32.0433 20.304Z" fill="#4074D8"/>
</svg>
